<svg viewBox="0 0 1200 900" xmlns="http://www.w3.org/2000/svg" role="img" aria-labelledby="title desc">
  <title id="title">Osaka skyline inspired scene</title>
  <desc id="desc">A local fallback skyline image inspired by Umeda and Nakanoshima in Osaka.</desc>
  <defs>
    <linearGradient id="sky" x1="0" x2="0" y1="0" y2="1">
      <stop offset="0" stop-color="#9fb7d8"/>
      <stop offset="0.55" stop-color="#d6dfe8"/>
      <stop offset="1" stop-color="#e9d2b0"/>
    </linearGradient>
    <linearGradient id="river" x1="0" x2="1">
      <stop offset="0" stop-color="#34495f"/>
      <stop offset="0.5" stop-color="#58768b"/>
      <stop offset="1" stop-color="#263a50"/>
    </linearGradient>
    <filter id="soft"><feGaussianBlur stdDeviation="10"/></filter>
  </defs>
  <rect width="1200" height="900" fill="url(#sky)"/>
  <circle cx="985" cy="155" r="86" fill="#fff1aa" opacity="0.66" filter="url(#soft)"/>
  <g opacity="0.34" fill="#ffffff" filter="url(#soft)">
    <ellipse cx="270" cy="165" rx="190" ry="40"/>
    <ellipse cx="680" cy="235" rx="250" ry="54"/>
    <ellipse cx="930" cy="320" rx="210" ry="46"/>
  </g>
  <g fill="#27384c">
    <rect x="22" y="430" width="82" height="290"/>
    <rect x="128" y="365" width="118" height="355"/>
    <rect x="270" y="310" width="86" height="410"/>
    <rect x="384" y="250" width="146" height="470"/>
    <rect x="560" y="338" width="110" height="382"/>
    <rect x="700" y="285" width="132" height="435"/>
    <rect x="860" y="385" width="104" height="335"/>
    <rect x="996" y="325" width="148" height="395"/>
  </g>
  <g fill="#405875" opacity="0.95">
    <rect x="45" y="462" width="10" height="180"/><rect x="72" y="462" width="10" height="180"/>
    <rect x="155" y="400" width="12" height="230"/><rect x="192" y="400" width="12" height="230"/>
    <rect x="300" y="344" width="10" height="275"/><rect x="328" y="344" width="10" height="275"/>
    <rect x="420" y="292" width="14" height="310"/><rect x="472" y="292" width="14" height="310"/>
    <rect x="595" y="374" width="12" height="230"/><rect x="632" y="374" width="12" height="230"/>
    <rect x="738" y="326" width="12" height="270"/><rect x="786" y="326" width="12" height="270"/>
    <rect x="1038" y="365" width="14" height="255"/><rect x="1092" y="365" width="14" height="255"/>
  </g>
  <path d="M0 668 C160 620 275 705 430 662 C570 622 730 612 892 658 C1035 700 1110 666 1200 632 L1200 900 L0 900 Z" fill="url(#river)"/>
  <path d="M0 734 C260 690 420 762 642 720 C820 686 1000 706 1200 676" fill="none" stroke="#dce7ef" stroke-width="8" opacity="0.32"/>
  <path d="M0 790 C220 750 460 802 680 766 C870 734 1038 758 1200 724" fill="none" stroke="#dce7ef" stroke-width="5" opacity="0.24"/>
</svg>
