<svg viewBox="0 0 1200 760" xmlns="http://www.w3.org/2000/svg" role="img" aria-labelledby="title desc">
  <title id="title">AIRO showcase mockup</title>
  <desc id="desc">A clean product showcase mockup for future marketing sections.</desc>
  <defs>
    <linearGradient id="bg" x1="0" x2="1" y1="0" y2="1"><stop stop-color="#EEF4FF"/><stop offset="1" stop-color="#D8E8F6"/></linearGradient>
    <radialGradient id="accent" cx="65%" cy="38%" r="48%"><stop stop-color="#00E5A0" stop-opacity="0.35"/><stop offset="1" stop-color="#00E5A0" stop-opacity="0"/></radialGradient>
  </defs>
  <rect width="1200" height="760" fill="url(#bg)"/>
  <circle cx="760" cy="280" r="320" fill="url(#accent)"/>
  <rect x="150" y="155" width="900" height="450" rx="42" fill="#ffffff" opacity="0.62"/>
  <rect x="210" y="215" width="455" height="38" rx="19" fill="#0A1628" opacity="0.12"/>
  <rect x="210" y="285" width="350" height="22" rx="11" fill="#0A1628" opacity="0.10"/>
  <rect x="210" y="330" width="420" height="22" rx="11" fill="#0A1628" opacity="0.08"/>
  <rect x="210" y="455" width="190" height="58" rx="3" fill="#00E5A0"/>
  <g transform="translate(760 170)">
    <rect x="0" y="0" width="166" height="320" rx="38" fill="#0A1628"/>
    <rect x="17" y="22" width="132" height="86" rx="12" fill="#071424"/>
    <g stroke="#00E5A0" stroke-opacity="0.35"><path d="M50 22v86M84 22v86M118 22v86M17 65h132"/></g>
    <g stroke="#00E5A0" stroke-width="5" stroke-linecap="round"><path d="M32 148h102M32 178h102M32 208h102"/></g>
    <circle cx="83" cy="276" r="12" fill="#00E5A0"/>
  </g>
</svg>
